<svg xmlns="http://www.w3.org/2000/svg" xmlns:xlink="http://www.w3.org/1999/xlink" width="1024" zoomAndPan="magnify" viewBox="0 0 768 767.999994" height="1024" preserveAspectRatio="xMidYMid meet" version="1.0"><defs><clipPath id="84b337ab17"><path d="M 83.457031 83.457031 L 684.230469 83.457031 L 684.230469 684.230469 L 83.457031 684.230469 Z M 83.457031 83.457031 " clip-rule="nonzero"/></clipPath><clipPath id="4c38f2fb96"><path d="M 30.441406 30.441406 L 738.25 30.441406 L 738.25 738.25 L 30.441406 738.25 Z M 30.441406 30.441406 " clip-rule="nonzero"/></clipPath></defs><g clip-path="url(#84b337ab17)"><path fill="#ffffff" d="M 684.230469 383.84375 C 684.230469 388.757812 684.109375 393.671875 683.867188 398.582031 C 683.625 403.492188 683.265625 408.394531 682.78125 413.285156 C 682.300781 418.179688 681.699219 423.054688 680.976562 427.917969 C 680.257812 432.78125 679.417969 437.625 678.457031 442.445312 C 677.5 447.265625 676.421875 452.0625 675.226562 456.832031 C 674.03125 461.601562 672.722656 466.335938 671.292969 471.039062 C 669.867188 475.746094 668.324219 480.410156 666.667969 485.039062 C 665.011719 489.667969 663.246094 494.253906 661.363281 498.796875 C 659.480469 503.335938 657.492188 507.832031 655.390625 512.273438 C 653.285156 516.71875 651.078125 521.109375 648.761719 525.445312 C 646.441406 529.78125 644.019531 534.054688 641.492188 538.273438 C 638.964844 542.488281 636.335938 546.640625 633.605469 550.730469 C 630.875 554.816406 628.042969 558.835938 625.117188 562.78125 C 622.1875 566.730469 619.164062 570.605469 616.042969 574.40625 C 612.925781 578.207031 609.714844 581.925781 606.414062 585.570312 C 603.113281 589.210938 599.722656 592.773438 596.25 596.25 C 592.773438 599.722656 589.210938 603.113281 585.570312 606.414062 C 581.925781 609.714844 578.207031 612.925781 574.40625 616.042969 C 570.605469 619.164062 566.730469 622.1875 562.78125 625.117188 C 558.835938 628.042969 554.816406 630.875 550.730469 633.605469 C 546.640625 636.335938 542.488281 638.964844 538.273438 641.492188 C 534.054688 644.019531 529.78125 646.441406 525.445312 648.761719 C 521.109375 651.078125 516.71875 653.285156 512.273438 655.390625 C 507.832031 657.492188 503.335938 659.480469 498.796875 661.363281 C 494.253906 663.246094 489.667969 665.011719 485.039062 666.667969 C 480.410156 668.324219 475.746094 669.867188 471.039062 671.292969 C 466.335938 672.722656 461.597656 674.03125 456.832031 675.226562 C 452.0625 676.421875 447.265625 677.5 442.445312 678.457031 C 437.625 679.417969 432.78125 680.257812 427.917969 680.976562 C 423.054688 681.699219 418.179688 682.300781 413.285156 682.78125 C 408.394531 683.265625 403.492188 683.625 398.582031 683.867188 C 393.671875 684.109375 388.757812 684.230469 383.84375 684.230469 C 378.925781 684.230469 374.015625 684.109375 369.105469 683.867188 C 364.195312 683.625 359.292969 683.265625 354.398438 682.78125 C 349.507812 682.300781 344.628906 681.699219 339.765625 680.976562 C 334.90625 680.257812 330.0625 679.417969 325.242188 678.457031 C 320.417969 677.5 315.625 676.421875 310.855469 675.226562 C 306.085938 674.03125 301.351562 672.722656 296.644531 671.292969 C 291.941406 669.867188 287.273438 668.324219 282.644531 666.667969 C 278.015625 665.011719 273.433594 663.246094 268.890625 661.363281 C 264.347656 659.480469 259.855469 657.492188 255.410156 655.390625 C 250.96875 653.285156 246.578125 651.078125 242.242188 648.761719 C 237.90625 646.441406 233.628906 644.019531 229.414062 641.492188 C 225.195312 638.964844 221.042969 636.335938 216.957031 633.605469 C 212.871094 630.875 208.851562 628.042969 204.902344 625.117188 C 200.953125 622.1875 197.082031 619.164062 193.28125 616.042969 C 189.480469 612.925781 185.757812 609.714844 182.117188 606.414062 C 178.472656 603.113281 174.914062 599.722656 171.4375 596.25 C 167.960938 592.773438 164.574219 589.210938 161.269531 585.570312 C 157.96875 581.925781 154.761719 578.207031 151.640625 574.40625 C 148.523438 570.605469 145.5 566.730469 142.570312 562.78125 C 139.640625 558.835938 136.8125 554.816406 134.082031 550.730469 C 131.351562 546.640625 128.71875 542.488281 126.191406 538.273438 C 123.664062 534.054688 121.242188 529.78125 118.925781 525.445312 C 116.609375 521.109375 114.398438 516.71875 112.296875 512.273438 C 110.195312 507.832031 108.203125 503.335938 106.324219 498.796875 C 104.441406 494.253906 102.671875 489.667969 101.015625 485.039062 C 99.359375 480.410156 97.816406 475.746094 96.390625 471.039062 C 94.964844 466.335938 93.652344 461.597656 92.457031 456.832031 C 91.265625 452.0625 90.1875 447.265625 89.230469 442.445312 C 88.269531 437.625 87.429688 432.78125 86.707031 427.917969 C 85.988281 423.054688 85.386719 418.179688 84.902344 413.285156 C 84.421875 408.394531 84.058594 403.492188 83.820312 398.582031 C 83.578125 393.671875 83.457031 388.757812 83.457031 383.84375 C 83.457031 378.925781 83.578125 374.015625 83.820312 369.105469 C 84.058594 364.195312 84.421875 359.292969 84.902344 354.398438 C 85.386719 349.507812 85.988281 344.628906 86.707031 339.765625 C 87.429688 334.90625 88.269531 330.0625 89.230469 325.242188 C 90.1875 320.417969 91.265625 315.625 92.457031 310.855469 C 93.652344 306.085938 94.964844 301.351562 96.390625 296.644531 C 97.816406 291.941406 99.359375 287.273438 101.015625 282.644531 C 102.671875 278.015625 104.441406 273.433594 106.324219 268.890625 C 108.203125 264.347656 110.195312 259.855469 112.296875 255.410156 C 114.398438 250.96875 116.609375 246.578125 118.925781 242.242188 C 121.242188 237.90625 123.664062 233.628906 126.191406 229.414062 C 128.71875 225.195312 131.351562 221.046875 134.082031 216.957031 C 136.8125 212.871094 139.640625 208.851562 142.570312 204.902344 C 145.5 200.953125 148.523438 197.082031 151.640625 193.28125 C 154.761719 189.480469 157.96875 185.757812 161.269531 182.117188 C 164.574219 178.472656 167.960938 174.914062 171.4375 171.4375 C 174.914062 167.960938 178.472656 164.574219 182.117188 161.273438 C 185.757812 157.96875 189.480469 154.761719 193.28125 151.640625 C 197.082031 148.523438 200.953125 145.5 204.902344 142.570312 C 208.851562 139.640625 212.871094 136.8125 216.957031 134.082031 C 221.042969 131.351562 225.195312 128.71875 229.414062 126.191406 C 233.628906 123.664062 237.90625 121.242188 242.242188 118.925781 C 246.578125 116.609375 250.96875 114.398438 255.410156 112.296875 C 259.855469 110.195312 264.347656 108.203125 268.890625 106.324219 C 273.433594 104.441406 278.015625 102.671875 282.644531 101.015625 C 287.273438 99.359375 291.941406 97.820312 296.644531 96.390625 C 301.351562 94.964844 306.085938 93.652344 310.855469 92.460938 C 315.625 91.265625 320.417969 90.1875 325.242188 89.230469 C 330.0625 88.269531 334.90625 87.429688 339.765625 86.707031 C 344.628906 85.988281 349.507812 85.386719 354.398438 84.902344 C 359.292969 84.421875 364.195312 84.058594 369.105469 83.820312 C 374.015625 83.578125 378.925781 83.457031 383.84375 83.457031 C 388.757812 83.457031 393.671875 83.578125 398.582031 83.820312 C 403.492188 84.058594 408.394531 84.421875 413.285156 84.902344 C 418.179688 85.386719 423.054688 85.988281 427.917969 86.707031 C 432.78125 87.429688 437.625 88.269531 442.445312 89.230469 C 447.265625 90.1875 452.0625 91.265625 456.832031 92.460938 C 461.597656 93.652344 466.335938 94.964844 471.039062 96.390625 C 475.746094 97.820312 480.410156 99.359375 485.039062 101.015625 C 489.667969 102.671875 494.253906 104.441406 498.796875 106.324219 C 503.335938 108.203125 507.832031 110.195312 512.273438 112.296875 C 516.71875 114.398438 521.109375 116.609375 525.445312 118.925781 C 529.78125 121.242188 534.054688 123.664062 538.273438 126.191406 C 542.488281 128.71875 546.640625 131.351562 550.730469 134.082031 C 554.816406 136.8125 558.835938 139.640625 562.78125 142.570312 C 566.730469 145.5 570.605469 148.523438 574.40625 151.640625 C 578.207031 154.761719 581.925781 157.96875 585.570312 161.273438 C 589.210938 164.574219 592.773438 167.960938 596.25 171.4375 C 599.722656 174.914062 603.113281 178.472656 606.414062 182.117188 C 609.714844 185.757812 612.925781 189.480469 616.042969 193.28125 C 619.164062 197.082031 622.1875 200.953125 625.117188 204.902344 C 628.042969 208.851562 630.875 212.871094 633.605469 216.957031 C 636.335938 221.046875 638.964844 225.195312 641.492188 229.414062 C 644.019531 233.628906 646.441406 237.90625 648.761719 242.242188 C 651.078125 246.578125 653.285156 250.96875 655.390625 255.410156 C 657.492188 259.855469 659.480469 264.347656 661.363281 268.890625 C 663.246094 273.433594 665.011719 278.015625 666.667969 282.644531 C 668.324219 287.273438 669.867188 291.941406 671.292969 296.644531 C 672.722656 301.351562 674.03125 306.085938 675.226562 310.855469 C 676.421875 315.625 677.5 320.417969 678.457031 325.242188 C 679.417969 330.0625 680.257812 334.90625 680.976562 339.765625 C 681.699219 344.628906 682.300781 349.507812 682.78125 354.398438 C 683.265625 359.292969 683.625 364.195312 683.867188 369.105469 C 684.109375 374.015625 684.230469 378.925781 684.230469 383.84375 Z M 684.230469 383.84375 " fill-opacity="1" fill-rule="nonzero"/></g><g clip-path="url(#4c38f2fb96)"><path fill="#000000" d="M 384.34375 30.441406 C 188.890625 30.441406 30.441406 188.890625 30.441406 384.34375 C 30.441406 579.800781 188.890625 738.25 384.34375 738.25 C 579.800781 738.25 738.25 579.800781 738.25 384.34375 C 738.25 188.890625 579.800781 30.441406 384.34375 30.441406 Z M 590.136719 394.347656 C 580.046875 404.4375 565.160156 406.78125 552.828125 401.40625 L 552.828125 535.636719 C 552.828125 563.550781 530.199219 586.179688 502.285156 586.179688 L 266.40625 586.179688 C 238.492188 586.179688 215.863281 563.550781 215.863281 535.636719 L 215.863281 401.40625 C 203.53125 406.78125 188.644531 404.4375 178.554688 394.347656 C 165.398438 381.1875 165.398438 359.855469 178.554688 346.695312 L 360.519531 164.730469 C 373.675781 151.570312 395.011719 151.570312 408.171875 164.730469 L 590.132812 346.691406 C 603.296875 359.851562 603.296875 381.1875 590.136719 394.347656 Z M 590.136719 394.347656 " fill-opacity="1" fill-rule="nonzero"/></g><path fill="#000000" d="M 426.464844 400.847656 L 342.222656 400.847656 C 332.917969 400.847656 325.375 408.394531 325.375 417.699219 L 325.375 518.789062 C 325.375 528.09375 332.917969 535.636719 342.222656 535.636719 L 426.464844 535.636719 C 435.773438 535.636719 443.316406 528.09375 443.316406 518.789062 L 443.316406 417.699219 C 443.3125 408.390625 435.773438 400.847656 426.464844 400.847656 Z M 426.464844 400.847656 " fill-opacity="1" fill-rule="nonzero"/></svg>